<?xml version="1.0" standalone="no"?>
<!DOCTYPE svg PUBLIC "-//W3C//DTD SVG 20010904//EN"
 "http://www.w3.org/TR/2001/REC-SVG-20010904/DTD/svg10.dtd">
<svg version="1.0" xmlns="http://www.w3.org/2000/svg"
 width="118.000000pt" height="118.000000pt" viewBox="0 0 118.000000 118.000000"
 preserveAspectRatio="xMidYMid meet">
<metadata>
Created by potrace 1.14, written by Peter Selinger 2001-2017
</metadata>
<g transform="translate(0.000000,118.000000) scale(0.100000,-0.100000)"
fill="#000000" stroke="none">
<path d="M585 1170 c-3 -6 -8 -33 -10 -60 -2 -27 -6 -54 -10 -59 -3 -6 -62
-47 -131 -92 -68 -45 -129 -90 -134 -100 -11 -20 -4 -45 20 -69 22 -22 22
-119 0 -131 -8 -4 -37 -18 -63 -30 -53 -25 -59 -38 -61 -130 -1 -40 -7 -65
-19 -79 -34 -40 -11 -90 56 -120 46 -21 59 -18 57 13 -3 33 11 67 26 67 8 0
14 4 14 9 0 18 152 44 258 44 118 0 162 -5 239 -29 62 -20 71 -29 78 -79 2
-21 6 -39 8 -42 8 -7 77 28 97 49 24 26 26 65 5 88 -10 11 -17 43 -19 91 -2
41 -4 77 -5 81 -2 11 -86 58 -104 58 -23 0 -28 13 -29 73 -1 43 3 58 20 75 12
12 22 30 22 40 0 20 -39 62 -57 62 -6 0 -13 3 -15 8 -2 4 -43 34 -93 67 -111
74 -109 72 -114 115 -4 38 -8 71 -10 83 -2 10 -19 9 -26 -3z m105 -275 c111
-15 170 -37 170 -61 0 -16 -26 -19 -35 -4 -18 29 -234 53 -340 36 -50 -7 -92
-20 -113 -34 -33 -21 -52 0 -20 22 30 22 78 34 157 41 36 3 66 7 68 8 3 4 64
-1 113 -8z m-49 -64 c25 -1 26 -3 24 -64 -1 -35 -4 -67 -7 -73 -5 -7 -52 -9
-123 -5 -8 1 -11 58 -6 128 1 11 41 21 71 17 8 -2 27 -3 41 -3z m-155 -69 c1
-33 -2 -65 -5 -71 -10 -16 -98 -23 -103 -8 -3 7 -4 32 -3 57 0 41 3 46 39 66
60 34 71 28 72 -44z m274 53 c8 -2 18 -4 22 -4 22 -3 37 -36 37 -86 l0 -55
-52 6 c-29 4 -54 8 -56 10 -2 2 -3 27 -3 56 0 90 0 91 20 83 9 -4 24 -8 32
-10z m-424 -255 c-1 -27 -4 -52 -7 -54 -2 -3 -23 4 -47 14 -56 25 -56 51 0 79
23 11 45 18 48 16 4 -3 7 -27 6 -55z m549 50 c4 -6 10 -8 14 -5 13 7 63 -44
55 -56 -3 -6 -25 -19 -48 -30 -48 -21 -53 -16 -48 56 4 43 14 56 27 35z m80
-140 c-3 -5 -14 -6 -25 -3 -16 4 -18 8 -9 19 9 11 15 11 25 3 8 -6 12 -15 9
-19z m-695 10 c0 -5 -2 -10 -4 -10 -2 0 -11 -2 -19 -5 -8 -4 -14 0 -14 10 0 8
9 15 19 15 10 0 18 -4 18 -10z"/>
<path d="M546 217 c-29 -13 -29 -13 -33 -115 l-4 -102 89 0 88 0 -2 48 c-1 26
-4 72 -5 104 -3 55 -4 56 -40 67 -45 14 -56 13 -93 -2z"/>
</g>
</svg>
